<svg xmlns="http://www.w3.org/2000/svg" viewBox="0 0 32 32">
  <path d="M32 24.795c-1.164.296-1.884.013-2.53-.957l-4.594-6.356-.664-.88-5.365 7.257c-.613.873-1.256 1.253-2.4.944l6.87-9.222-6.396-8.33c1.1-.214 1.86-.105 2.535.88l4.765 6.435 4.8-6.4c.615-.873 1.276-1.205 2.38-.883l-2.48 3.288-3.36 4.375c-.4.5-.345.842.023 1.325L32 24.795zM.008 15.427l.562-2.764C2.1 7.193 8.37 4.92 12.694 8.3c2.527 1.5 3.355 4.062 3.03 6.9H1.48c-.214 5.67 3.867 9.092 9.07 7.346 1.825-.613 2.9-2.042 3.438-3.83.273-.896.725-1.036 1.567-.78-.43 2.236-1.4 4.104-3.45 5.273-3.063 1.75-7.435 1.184-9.735-1.248C1 19.6.434 17.5.008 15.427zm1.498-3.61H12.7c-.214-2.042-1.24-4.02-3.02-4.9-2.253-1.114-5.805-.394-7.36 1.94-.21.317-.413.644-.593.98-.474.9-.756 1.78-.22 2.98z" fill="#68A063"/>
</svg>