<svg xmlns="http://www.w3.org/2000/svg" viewBox="0 0 32 32">
  <path d="M21.8537 1.4158C19.0967 0.5584 16.1251 0.5584 13.3681 1.4158C11.2394 2.0948 9.3071 3.2056 7.7248 4.6695C6.1425 6.1334 4.9507 7.9154 4.2308 9.8841C3.5109 11.8528 3.2808 13.9594 3.5588 16.0341C3.8368 18.1088 4.6156 20.1016 5.8308 21.8341C7.046 23.5666 8.6651 24.9941 10.5588 25.9941C12.4525 26.9941 14.5681 27.5341 16.7248 27.5741C18.8815 27.6141 21.0181 27.1541 22.9448 26.2341C24.8715 25.3141 26.5381 23.9641 27.8048 22.2941C29.0715 20.6241 29.9048 18.6841 30.2448 16.6341C30.5848 14.5841 30.4248 12.4741 29.7748 10.4941C29.1248 8.5141 28.0048 6.7141 26.5048 5.2341C25.0048 3.7541 23.1648 2.6341 21.1248 1.9541L21.8537 1.4158Z" fill="#6DB33F"/>
  <path d="M24.6 16.2C24.6 20.8 20.8 24.6 16.2 24.6C11.6 24.6 7.8 20.8 7.8 16.2C7.8 11.6 11.6 7.8 16.2 7.8C20.8 7.8 24.6 11.6 24.6 16.2Z" fill="#FFFFFF"/>
  <path d="M16.2 9.6C12.6 9.6 9.6 12.6 9.6 16.2C9.6 19.8 12.6 22.8 16.2 22.8C19.8 22.8 22.8 19.8 22.8 16.2C22.8 12.6 19.8 9.6 16.2 9.6ZM16.2 21C13.6 21 11.4 18.8 11.4 16.2C11.4 13.6 13.6 11.4 16.2 11.4C18.8 11.4 21 13.6 21 16.2C21 18.8 18.8 21 16.2 21Z" fill="#6DB33F"/>
</svg>